<?xml version="1.0" encoding="UTF-8"?>
<svg id="_레이어_1" data-name="레이어 1" xmlns="http://www.w3.org/2000/svg" viewBox="0 0 266.02 266.02">
  <defs>
    <style>
      .cls-1 {
        fill: #0076ff;
      }

      .cls-2 {
        fill: #251714;
      }
    </style>
  </defs>
  <path class="cls-2" d="M195.55,202.39v1.08c0,34.49-28.01,62.55-62.51,62.55s-62.55-28.06-62.55-62.55V120.13h42.84v83.34c0,10.87,8.82,19.69,19.71,19.69s19.69-8.82,19.69-19.69v-1.08h42.82Z"/>
  <path class="cls-2" d="M195.55,62.55v83.34h-42.82V62.55c0-10.87-8.84-19.69-19.69-19.69s-19.71,8.82-19.71,19.69v1.1h-42.84v-1.1C70.49,28.06,98.55,0,133.04,0s62.51,28.06,62.51,62.55Z"/>
  <path class="cls-1" d="M145.89,70.47v42.84H62.55c-10.84,0-19.69,8.82-19.69,19.71s8.84,19.69,19.69,19.69h1.1v42.84h-1.1C28.08,195.55,0,167.51,0,133.02s28.08-62.55,62.55-62.55h83.34Z"/>
  <path class="cls-1" d="M266.02,133.02c0,34.49-28.06,62.53-62.55,62.53H120.15v-42.84h83.32c10.87,0,19.71-8.82,19.71-19.69s-8.84-19.71-19.71-19.71h-1.08v-42.84h1.08c34.49,0,62.55,28.04,62.55,62.55Z"/>
</svg>